<?xml version="1.0" standalone="no"?>
<!DOCTYPE svg PUBLIC "-//W3C//DTD SVG 20010904//EN"
 "http://www.w3.org/TR/2001/REC-SVG-20010904/DTD/svg10.dtd">
<svg version="1.0" xmlns="http://www.w3.org/2000/svg"
 width="659.000000pt" height="659.000000pt" viewBox="0 0 659.000000 659.000000"
 preserveAspectRatio="xMidYMid meet">
<metadata>
Created by potrace 1.14, written by Peter Selinger 2001-2017
</metadata>
<g transform="translate(0.000000,659.000000) scale(0.100000,-0.100000)"
fill="#000000" stroke="none">
<path d="M3309 6216 c-2 -2 -35 -7 -72 -11 -37 -3 -78 -8 -90 -11 -12 -2 -39
-6 -62 -9 -22 -3 -89 -15 -150 -26 -778 -144 -1361 -433 -1835 -909 -111 -112
-249 -269 -264 -300 -4 -8 -12 -24 -19 -35 -36 -59 -161 -300 -228 -440 -231
-482 -396 -976 -478 -1435 -12 -63 -23 -124 -25 -135 -2 -11 -7 -49 -11 -85
-4 -36 -9 -74 -11 -85 -7 -37 -30 -280 -39 -420 -5 -65 -10 -414 -19 -1124
l-3 -294 26 -24 c79 -71 262 -173 406 -226 82 -31 306 -93 367 -102 23 -4 45
-8 48 -10 3 -2 30 -6 60 -10 30 -4 57 -8 60 -10 7 -4 238 -34 310 -40 30 -2
71 -7 90 -9 19 -3 78 -8 130 -11 52 -3 120 -8 150 -10 146 -11 551 -23 840
-25 l195 -1 185 77 185 78 567 -2 567 -2 73 -24 c40 -14 171 -59 290 -100 223
-77 227 -77 330 -57 29 6 69 13 88 15 19 3 49 8 65 11 17 3 44 7 60 10 17 3
40 7 51 9 12 2 37 7 55 10 19 3 45 8 59 11 14 3 50 9 80 15 724 133 1173 279
1236 402 14 26 15 107 10 682 -3 358 -7 685 -10 726 -3 41 -8 113 -11 160 -9
132 -15 212 -20 250 -2 19 -6 58 -10 85 -12 110 -14 126 -19 157 -3 18 -8 51
-11 73 -13 101 -60 335 -95 480 -103 420 -267 832 -470 1180 -29 50 -58 99
-64 110 -131 226 -340 461 -591 666 -298 242 -698 451 -1120 584 -60 20 -123
40 -140 45 -33 10 -258 69 -290 76 -11 2 -43 8 -71 14 -28 6 -61 13 -75 15
-13 3 -71 14 -129 25 -103 20 -143 24 -151 16z"/>
</g>
</svg>
