<?xml version="1.0" encoding="UTF-8" standalone="no"?>
<!-- Created with Inkscape (http://www.inkscape.org/) -->

<svg
   width="185.26712mm"
   height="195.78896mm"
   viewBox="0 0 185.26712 195.78896"
   version="1.1"
   id="svg1"
   xml:space="preserve"
   inkscape:version="1.3 (0e150ed, 2023-07-21)"
   sodipodi:docname="penguin.svg"
   inkscape:export-filename="penguin.png"
   inkscape:export-xdpi="300"
   inkscape:export-ydpi="300"
   xmlns:inkscape="http://www.inkscape.org/namespaces/inkscape"
   xmlns:sodipodi="http://sodipodi.sourceforge.net/DTD/sodipodi-0.dtd"
   xmlns="http://www.w3.org/2000/svg"
   xmlns:svg="http://www.w3.org/2000/svg"><sodipodi:namedview
     id="namedview1"
     pagecolor="#505050"
     bordercolor="#eeeeee"
     borderopacity="1"
     inkscape:showpageshadow="0"
     inkscape:pageopacity="0"
     inkscape:pagecheckerboard="0"
     inkscape:deskcolor="#505050"
     inkscape:document-units="mm"
     showguides="false"
     inkscape:zoom="0.49977313"
     inkscape:cx="100.0454"
     inkscape:cy="583.26466"
     inkscape:window-width="1248"
     inkscape:window-height="847"
     inkscape:window-x="0"
     inkscape:window-y="39"
     inkscape:window-maximized="0"
     inkscape:current-layer="g1"
     showgrid="false" /><defs
     id="defs1" /><g
     inkscape:label="Layer 1"
     inkscape:groupmode="layer"
     id="layer1"
     transform="translate(-20.097626,-318.8645)"><g
       id="g1"
       transform="translate(10.565075,250.21816)"
       inkscape:label="penguin"><path
         style="fill:#e7e7e7;fill-opacity:1"
         d="m 55.804093,257.4507 c -11.66883,-0.12823 -12.06698,-0.14948 -12.96458,-0.69212 -0.50933,-0.30791 -1.75948,-1.00923 -2.77813,-1.5585 -1.01864,-0.54927 -2.18864,-1.27961 -2.59999,-1.62298 -0.41134,-0.34338 -0.86317,-0.62431 -1.00406,-0.62431 -0.47282,0 -5.31166,-4.87385 -6.82974,-6.87917 -4.35078,-5.74718 -6.5281,-11.6831 -6.81778,-18.58698 l -0.15265,-3.63802 18.958795,-125.662266 84.411492,-3.759476 28.72302,97.725442 -11.63388,31.6963 -0.001,1.65365 c -7.9e-4,0.9095 -0.24475,3.32052 -0.54214,5.35781 -1.12755,7.72437 -3.16242,13.23776 -6.98208,18.91771 -1.46432,2.17747 -4.72671,5.1253 -7.15872,6.46846 -0.7276,0.40184 -1.45322,0.83645 -1.61249,0.96578 -0.32847,0.26674 -52.504197,0.44209 -71.015627,0.23867 z"
         id="path8"
         sodipodi:nodetypes="sssssssccccccssssss"
         inkscape:export-filename="path8.png"
         inkscape:export-xdpi="96"
         inkscape:export-ydpi="96"
         inkscape:label="penguin_white" /><path
         style="fill:#cf8d66;fill-opacity:1"
         d="m 49.345396,264.32987 -8.73125,-0.13229 -0.07244,-3.04271 c -0.04036,-1.69511 0.04339,-3.21848 0.189107,-3.43959 0.210162,-0.31889 0.744253,-0.37635 2.718278,-0.29241 1.3512,0.0575 9.094461,0.14871 17.207247,0.20279 l 14.75052,0.0983 v 3.30294 3.30294 l -1.124479,0.0408 c -2.819453,0.10233 -17.024079,0.0791 -24.936978,-0.0408 z m 47.172908,-0.46302 c -0.06431,-0.25466 -0.146953,-1.74113 -0.183646,-3.30326 l -0.06671,-2.84023 16.093932,-0.0702 c 8.85166,-0.0386 16.55824,-0.0107 17.12573,0.0621 1.45461,0.18651 2.08486,1.10328 2.06775,3.00777 -0.0175,1.94474 -0.16212,2.30856 -1.1973,3.01151 l -0.87666,0.59531 h -16.42308 c -15.420094,0 -16.430221,-0.0283 -16.540012,-0.46302 z M 24.36316,229.25053 c 0.0127,-0.30823 0.07539,-0.37092 0.159853,-0.15985 0.07643,0.19099 0.06703,0.4192 -0.02089,0.50712 -0.08792,0.0879 -0.150453,-0.0684 -0.138965,-0.34727 z m 59.718918,-88.78522 c -0.991636,-0.36262 -8.190334,-4.051 -9.549049,-4.89262 -2.965472,-1.83688 -3.282163,-2.93575 -1.361535,-4.72432 0.662323,-0.61679 2.835213,-2.23246 4.828645,-3.59038 1.993432,-1.35792 3.667967,-2.57586 3.721188,-2.70654 0.05322,-0.13067 0.814356,-0.57696 1.691408,-0.99174 l 1.594642,-0.75414 1.086717,0.54439 c 0.597694,0.29941 1.384373,0.80704 1.748175,1.12806 0.363802,0.32103 2.149739,1.64286 3.96875,2.93741 6.000443,4.27039 6.516139,4.74084 6.219922,5.67414 -0.18043,0.56848 -2.301082,2.2332 -3.884924,3.04968 -2.989081,1.54089 -9.192449,4.62741 -9.263924,4.60932 -0.04539,-0.0115 -0.405399,-0.13896 -0.800015,-0.28326 z"
         id="path5"
         sodipodi:nodetypes="ccsssscccsscsscsssscsssssssssssssscsssssss"
         inkscape:label="penguin_orange" /><path
         style="fill:#0c8bac;fill-opacity:1"
         d="m 40.654685,264.39601 5.606781,-0.13101 3.165691,0.27256 z m 19.356726,0.0177 0.507118,0.0209 -0.347266,0.13896 -0.159852,-0.15985 z m 1.041797,0.006 h 0.661458 l -0.330729,0.13345 z m 10.985243,-0.008 0.79375,0.01 -0.468056,0.12197 -0.325694,-0.13177 z m 2.30031,-0.004 1.052504,-0.10693 0.08579,-3.22631 0.08579,-3.22631 -0.01185,3.30729 -0.01185,3.30729 -1.126444,0.026 -1.126443,0.0259 z m 30.389769,-0.011 16.40417,5e-5 -8.28731,0.0738 -8.11686,-0.0739 z m -8.5192,-1.5317 -0.117149,-2.85568 0.04783,-2.42576 0.153519,2.77813 z m 35.34077,-1.31269 0.13177,-0.32569 -0.01,0.79375 -0.12197,-0.46806 z m -0.0307,-1.60955 0.15986,-0.15985 -0.0209,0.50712 -0.13897,-0.34727 z m -0.84838,-1.89618 0.0999,-0.0999 0.46302,0.46302 -0.56291,-0.36313 z m -1.75219,-0.51311 h 0.92604 l -0.46302,0.121 z m -85.526559,-0.17617 1.714346,-0.17942 -0.805399,0.22875 -0.908947,-0.0493 z m 89.958329,-2.89924 0.8599,-0.85989 0.85989,-0.77711 -0.7771,0.8599 z m -99.218745,-4.812 -1.838839,-1.98437 2.103422,1.98437 1.83884,1.98438 z m -7.28692,-10.73322 -0.0483,-0.40829 0.282774,0.28219 -0.234472,0.1261 z m -9.650331,-15.28544 -0.252665,-8.14972 -0.03394,-9.95191 0.460715,-27.95343 18.991673,4.43528 -1.499171,16.26384 7.687738,10.63325 8.674772,-7.83144 8.582728,8.30793 8.1657,-7.73621 9.454067,6.80293 8.294633,-7.39231 9.302383,8.00487 8.031903,-7.59247 9.42582,7.70792 8.75489,-8.39699 8.44589,8.60072 8.68697,-8.37504 8.71271,7.4954 2.51054,-3.09364 -10.80953,-10.31846 -9.34621,7.54159 -8.32027,-7.35532 -8.3078,7.22304 -8.95859,-7.21181 -8.856549,7.72264 -8.990608,-8.04212 -8.692406,7.73725 -8.490542,-7.72673 -9.05136,7.79229 -8.187906,-10.09547 -9.041203,10.37564 -2.05779,-4.52667 12.824663,-14.12455 7.037793,6.90447 7.180058,-6.90324 9.957206,6.84734 8.234689,-7.91695 9.727781,7.79969 8.297974,-7.76107 8.7267,7.98879 8.46376,-8.0654 8.93497,8.01411 8.49802,-7.98195 9.97963,8.30915 0.28276,-5.04068 -9.97884,-9.34846 -9.02552,7.71194 -8.46863,-7.758 -8.78956,7.49321 -9.06309,-6.79301 -7.966079,6.85199 -9.368419,-7.20252 -8.663145,7.13358 -7.301691,-8.08414 -9.613146,8.62629 -7.673126,-7.70771 -11.973876,16.72704 -23.511931,-17.34342 -0.241727,-21.75523 119.07416,-0.17489 16.07344,0.17544 0.135,6.52782 6.86152,-4.18027 11.45541,38.37401 -18.24945,13.00699 -0.20243,14.84406 -134.941466,-0.0895 z M 51.49349,192.64829 c -62.058565,-442.86645 -62.058565,-442.86645 0,0 z"
         id="path4"
         sodipodi:nodetypes="ccccccccccccccccccccccccccccccccccccccccccccccccccccccccccccccccccccccccccccccccccccccccccccccccccccccccccccccccccccccccccccccccccccccccccccccccccc"
         inkscape:label="sweater" /><path
         style="fill:#1c1c1c;fill-opacity:1"
         d="m 20.519979,209.74296 c -3.076002,-1.1069 -7.778738,-6.10982 -10.099016,-10.74365 -1.9922841,-3.9788 -2.7302185,-7.04516 -2.7649355,-11.4892 -0.03559,-4.5561 0.5455884,-6.55719 2.6428765,-9.09983 2.219962,-2.69137 4.317023,-4.21768 8.766603,-6.38065 2.404958,-1.16906 2.876005,-1.36113 6.554283,-2.67247 6.847871,-2.44134 15.298485,-3.80122 23.646251,-3.80517 5.705179,-0.003 9.369384,0.45485 13.062579,1.63111 3.66494,1.16726 5.605386,2.36953 7.1743,4.4451 1.155294,1.52838 1.272845,1.81 1.16285,2.78588 -0.135445,1.20166 -1.423668,4.06897 -2.368581,5.27195 -2.879881,3.66643 -10.78056,11.38821 -14.45699,14.12964 -0.6781,0.50564 -1.560749,1.22142 -1.96144,1.59061 -0.400691,0.3692 -1.25351,0.97602 -1.895152,1.34849 -1.495648,0.86821 -5.001937,3.2926 -6.385895,4.41547 -0.669299,0.54303 -1.265722,0.82346 -1.5875,0.74642 -0.326698,-0.0782 -1.275758,0.38601 -2.591955,1.26784 -3.238022,2.16941 -4.745017,3.00204 -8.341169,4.60857 -3.416692,1.52636 -6.586033,2.47292 -8.235423,2.45959 -0.509323,-0.004 -1.554081,-0.23348 -2.321686,-0.5097 z M 169.07063,189.69292 c -0.744,-2.41133 -2.24542,-7.48353 -2.48663,-8.40052 -0.48135,-1.82988 -2.53987,-8.6451 -4.11572,-13.62604 -2.49531,-7.88716 -2.31447,-7.15991 -1.82238,-7.32883 0.2423,-0.0832 1.75552,-0.65734 3.36272,-1.27591 5.53936,-2.13197 11.9811,-4.01209 15.40728,-4.49683 3.94563,-0.55825 8.33852,-0.4434 10.05315,0.26281 2.26284,0.93201 3.74856,3.61028 3.40266,6.13388 -0.93481,6.82024 -6.62173,15.86418 -15.28714,24.31127 -3.83476,3.73814 -7.1938,6.73528 -7.54858,6.73528 -0.13807,0 -0.57248,-1.0418 -0.96536,-2.31511 z M 18.690028,143.39084 c 0.14716,-12.5611 0.241288,-13.67005 1.768566,-20.83594 1.352443,-6.34557 5.177904,-15.99791 8.493734,-21.43125 5.050832,-8.276314 12.090123,-15.705842 19.721207,-20.814487 1.872523,-1.253564 3.880837,-2.532616 4.46292,-2.842336 0.582084,-0.309721 1.713177,-0.936001 2.513542,-1.391733 3.348732,-1.906788 10.590522,-4.537956 15.478124,-5.623686 4.668407,-1.037037 8.00096,-1.342862 14.552083,-1.335429 6.546057,0.0074 9.564483,0.335537 14.925556,1.622441 17.2425,4.138998 33.55711,17.41335 42.22216,34.35397 2.99707,5.85943 4.90648,11.05522 6.32007,17.19793 1.59417,6.92735 1.94847,10.78497 2.13237,23.21719 l 0.14383,9.72343 h -10.18397 -10.18398 l -0.0619,-10.12031 c -0.0341,-5.56617 -0.0262,-11.54906 0.0174,-13.29531 0.22069,-8.83299 -1.24578,-15.55216 -4.5857,-21.01116 -0.79374,-1.29735 -2.93625,-3.81463 -4.45944,-5.2395 -2.09057,-1.95562 -4.29558,-3.22377 -7.31452,-4.2067 -1.89787,-0.61794 -2.7033,-0.73272 -5.15937,-0.73527 -3.25613,-0.003 -5.14244,0.41777 -8.20208,1.83124 -2.114433,0.97679 -3.030713,1.62968 -5.280259,3.76236 -4.128556,3.91407 -7.248683,10.07166 -8.082505,15.95088 -0.1516,1.06892 -0.309698,1.97755 -0.35133,2.01918 -0.04163,0.0416 -0.514671,-0.15959 -1.0512,-0.44715 -1.254142,-0.67218 -1.678577,-0.65826 -3.185082,0.10443 l -1.239007,0.62726 -0.112433,-0.56112 c -0.06184,-0.30861 -0.180782,-1.34682 -0.264319,-2.30711 -0.405164,-4.65755 -3.637102,-11.08364 -7.544885,-15.00157 -2.259334,-2.2652 -3.80704,-3.3031 -6.901205,-4.62798 -8.59723,-3.681226 -18.33067,-0.16323 -24.006014,8.67659 -0.871694,1.35773 -2.535678,5.11981 -3.133206,7.08382 -1.220867,4.01285 -1.405301,6.99651 -1.414268,22.8792 l -0.0083,14.61822 H 28.63399 18.551315 Z m 37.949649,-11.29223 c -1.657127,-0.59133 -2.652266,-1.50742 -3.349357,-3.08332 -0.823529,-1.86172 -0.939367,-3.17225 -0.418901,-4.73923 1.122183,-3.37858 4.943045,-5.37081 7.917231,-4.12812 1.53153,0.63992 2.991173,2.1843 3.607168,3.81659 1.136951,3.01274 0.09977,5.99854 -2.658202,7.65235 -1.606514,0.96334 -3.299849,1.12335 -5.097939,0.48173 z m 52.602803,0.18581 c -1.99045,-0.50639 -3.97225,-2.94677 -4.26045,-5.24628 -0.31867,-2.54266 0.98355,-5.26204 3.09884,-6.47121 1.43741,-0.82168 4.34382,-0.91727 5.69899,-0.18744 2.04972,1.10388 3.51806,3.50263 3.51806,5.74729 0,2.51604 -2.0414,5.48106 -4.18323,6.07593 -0.99557,0.27651 -2.94484,0.31764 -3.87221,0.0817 z"
         id="path1"
         inkscape:export-filename="path1.png"
         inkscape:export-xdpi="96"
         inkscape:export-ydpi="96"
         inkscape:label="penguin_black" /></g></g></svg>
